<?xml version="1.0" standalone="no"?>
<!DOCTYPE svg PUBLIC "-//W3C//DTD SVG 20010904//EN"
 "http://www.w3.org/TR/2001/REC-SVG-20010904/DTD/svg10.dtd">
<svg version="1.0" xmlns="http://www.w3.org/2000/svg"
 width="840.000000pt" height="840.000000pt" viewBox="0 0 840.000000 840.000000"
 preserveAspectRatio="xMidYMid meet">
<metadata>
Created by potrace 1.11, written by Peter Selinger 2001-2013
</metadata>
<g transform="translate(0.000000,840.000000) scale(0.100000,-0.100000)"
fill="#000000" stroke="none">
<path d="M180 8193 c-72 -24 -126 -69 -156 -131 -18 -35 -19 -91 -21 -1254 -3
-1179 -2 -1217 16 -1259 25 -54 83 -115 124 -128 51 -17 126 -29 129 -21 2 4
24 5 51 0 26 -4 47 -4 47 -1 0 8 165 5 179 -3 6 -4 11 -3 11 3 0 6 11 6 29 1
15 -4 34 -4 41 0 7 4 25 4 41 0 15 -5 30 -6 33 -3 7 7 184 6 195 -2 5 -3 12
-1 15 3 3 5 26 6 51 2 25 -4 45 -4 45 -1 0 8 165 5 179 -3 6 -4 11 -3 11 3 0
6 11 6 29 1 15 -4 34 -4 41 0 7 4 25 4 41 0 15 -5 30 -6 33 -3 7 7 184 6 195
-2 5 -3 12 -1 15 3 3 5 26 6 51 2 25 -4 45 -4 45 -1 0 8 165 5 179 -3 6 -4 11
-3 11 3 0 6 11 6 29 1 15 -4 34 -4 41 0 7 4 25 4 41 0 15 -5 30 -6 33 -3 7 7
184 6 195 -2 5 -3 12 -1 15 3 3 5 26 6 51 2 25 -4 45 -4 45 -1 0 8 165 5 179
-3 6 -4 11 -3 11 3 0 6 6 8 13 5 22 -8 98 -10 103 -3 2 4 17 4 33 -1 15 -4 34
-4 41 0 7 4 26 4 41 0 16 -5 29 -5 29 0 0 8 49 5 77 -5 7 -2 14 -1 17 4 3 4
17 6 33 5 46 -4 73 -5 170 -4 51 1 97 -1 102 -5 5 -3 12 -1 15 3 3 5 26 6 51
2 25 -4 45 -4 45 -1 0 8 165 5 179 -3 6 -4 11 -3 11 3 0 6 6 8 13 5 23 -8 98
-10 103 -2 3 4 15 4 27 -1 12 -5 31 -5 42 -1 11 4 34 4 52 -1 18 -4 33 -3 33
1 0 5 15 6 34 3 76 -12 189 47 223 118 35 73 35 70 34 309 0 80 0 154 0 165 0
11 -1 73 -1 137 -1 65 2 122 5 128 3 5 2 10 -2 10 -5 0 -6 30 -3 66 3 36 2 68
-2 70 -5 3 -6 9 -3 13 5 10 6 81 3 219 -2 56 1 102 5 102 5 0 6 4 3 9 -4 6 -7
116 -5 201 0 8 0 80 0 160 0 80 0 154 0 165 0 11 -1 73 -1 137 -1 65 2 122 5
128 3 5 2 10 -2 10 -5 0 -6 30 -3 66 3 36 2 68 -2 70 -5 3 -6 9 -4 13 7 11 8
93 2 221 -6 133 -7 140 -18 140 -4 0 -8 6 -8 13 0 7 -18 32 -41 54 -78 79 81
73 -1933 72 -991 0 -1808 -3 -1816 -6z"/>
<path d="M4565 8188 c-72 -27 -125 -78 -149 -145 -11 -30 -19 -158 -17 -253 2
-82 0 -154 -5 -161 -3 -5 0 -9 6 -9 7 0 8 -6 1 -19 -6 -10 -8 -21 -5 -23 2 -3
4 -59 4 -124 -1 -157 -1 -171 0 -299 0 -60 0 -135 0 -165 0 -30 1 -81 3 -113
1 -31 -1 -57 -4 -57 -17 0 37 -112 69 -145 50 -51 128 -81 202 -76 8 0 51 0
95 0 44 0 87 0 95 0 8 0 74 0 145 0 72 0 137 0 145 0 8 0 51 0 95 0 44 0 87 0
95 0 8 0 74 0 145 0 72 0 139 0 150 1 28 2 32 2 107 0 36 -1 70 0 75 3 4 2 17
1 28 -3 11 -4 30 -4 42 1 12 5 25 4 28 0 3 -5 20 -6 38 -2 18 5 41 5 52 1 11
-4 30 -4 42 1 12 5 25 4 28 0 3 -5 20 -6 38 -2 18 5 41 5 52 1 11 -4 30 -4 42
1 12 5 25 4 28 0 3 -5 20 -6 38 -2 18 5 41 5 52 1 11 -4 29 -4 40 0 11 4 29 6
40 4 25 -5 231 -7 345 -5 8 0 51 0 95 0 44 0 87 0 95 0 8 1 44 1 80 0 36 0 72
0 80 0 8 0 74 0 145 0 72 0 137 0 145 0 8 0 51 0 95 0 44 0 87 0 95 0 8 0 74
0 145 0 72 0 137 0 145 0 8 0 51 0 95 0 44 0 86 0 93 0 6 0 40 1 75 1 111 2
182 39 234 120 l28 45 3 614 c3 686 4 674 -66 745 -20 22 -55 47 -77 57 -38
17 -135 18 -1850 17 -1276 0 -1819 -3 -1840 -10z"/>
<path d="M4554 6184 c-56 -20 -120 -86 -138 -143 -12 -38 -17 -97 -17 -188 0
-7 0 -38 0 -68 0 -30 0 -63 0 -72 1 -115 0 -156 -5 -164 -3 -5 0 -9 6 -9 7 0
8 -6 1 -19 -6 -10 -8 -21 -5 -23 2 -3 4 -59 4 -124 -1 -129 -1 -127 0 -227 0
-38 -2 -73 -6 -78 -3 -5 0 -9 6 -9 7 0 8 -6 1 -19 -6 -10 -8 -21 -5 -23 2 -3
4 -59 4 -124 0 -66 -1 -137 -1 -159 0 -22 0 -96 0 -165 0 -69 0 -132 0 -140 2
-99 0 -153 -5 -161 -3 -5 0 -9 6 -9 7 0 8 -6 1 -19 -6 -10 -8 -21 -5 -23 2 -3
4 -59 4 -124 -1 -129 -1 -127 0 -227 0 -38 -2 -73 -6 -78 -3 -5 0 -9 6 -9 7 0
8 -6 1 -19 -6 -10 -8 -21 -5 -23 2 -3 4 -59 4 -124 0 -66 -1 -137 -1 -159 0
-22 0 -107 0 -190 0 -82 0 -156 0 -162 0 -7 0 -78 0 -158 0 -80 0 -152 0 -160
0 -8 0 -70 0 -137 0 -253 3 -277 42 -336 17 -27 52 -62 78 -78 l46 -29 1285
-3 c707 -2 1308 -3 1335 -3 28 1 273 2 545 4 453 2 498 4 531 20 47 24 92 68
115 115 18 36 19 106 22 1847 2 2016 8 1866 -67 1940 -21 21 -58 46 -82 56
-42 17 -142 18 -1849 18 -1559 -1 -1811 -3 -1846 -15z"/>
<path d="M297 5004 c-2 -2 -22 -5 -43 -5 -98 -2 -177 -45 -223 -121 l-26 -43
-3 -609 c-3 -685 -3 -681 65 -750 41 -41 87 -64 143 -72 19 -3 40 -7 47 -9 6
-2 13 0 15 5 2 5 19 6 40 1 20 -5 39 -6 42 -3 3 2 79 4 168 3 90 -1 170 -2
178 -1 8 0 35 0 60 1 25 0 50 0 55 -1 6 -1 15 -2 20 0 6 1 82 1 170 0 88 0
167 -1 175 0 8 0 35 0 60 1 25 0 50 0 55 -1 6 -1 15 -2 20 0 6 1 82 1 170 0
88 0 167 -1 175 0 8 0 35 0 60 1 25 0 50 0 55 -1 6 -1 15 -2 20 0 6 1 82 1
170 0 88 0 167 -1 175 0 8 0 35 0 60 1 25 0 50 0 55 -1 6 -1 15 -2 20 0 6 1
82 1 170 0 88 0 167 -1 175 0 8 0 35 0 60 1 25 0 50 0 55 -1 6 -1 15 -2 20 0
6 1 82 1 170 0 88 0 167 -1 175 0 8 0 35 0 60 1 25 0 50 0 55 -1 6 -1 15 -2
20 0 6 1 82 1 170 0 88 0 167 -1 175 0 8 0 35 0 60 1 25 0 50 0 55 -1 6 -1 12
-2 15 -1 3 1 30 3 60 5 30 2 71 10 90 18 44 19 109 85 117 118 3 14 8 30 12
35 8 14 17 235 10 270 -1 6 -1 13 0 17 2 16 1 121 -1 216 -2 56 1 102 5 102 5
0 6 4 3 9 -4 6 -7 118 -5 201 0 20 0 298 0 330 -2 99 -24 162 -73 208 -42 40
-77 59 -123 66 -49 8 -151 10 -162 3 -5 -3 -15 -2 -23 3 -9 5 -19 5 -27 -2 -9
-7 -13 -7 -13 1 0 8 -6 9 -17 3 -10 -4 -29 -7 -43 -5 -14 2 -38 4 -55 4 -16 0
-59 0 -95 0 -36 0 -76 -1 -90 -1 -14 -1 -31 -1 -37 -1 -67 3 -143 2 -150 -2
-4 -2 -17 -1 -28 3 -11 4 -32 4 -46 0 -15 -4 -32 -4 -40 1 -8 4 -19 3 -26 -3
-9 -7 -13 -7 -13 1 0 8 -6 9 -17 3 -10 -4 -29 -7 -43 -5 -14 2 -38 4 -55 4
-62 0 -160 0 -170 0 -5 0 -23 0 -40 -1 -16 -1 -40 1 -52 4 -13 2 -25 1 -28 -4
-3 -4 -20 -5 -38 -1 -18 5 -41 5 -52 1 -11 -4 -30 -4 -42 1 -12 5 -25 4 -28 0
-3 -5 -20 -6 -38 -2 -18 5 -41 5 -51 1 -10 -3 -42 -3 -71 0 -30 3 -62 3 -72
-1 -10 -3 -27 -3 -38 1 -11 4 -32 4 -46 0 -15 -4 -32 -4 -40 1 -8 4 -19 3 -26
-3 -9 -7 -13 -7 -13 1 0 8 -6 9 -17 3 -10 -4 -29 -7 -43 -5 -14 2 -38 4 -55 4
-62 0 -160 0 -170 0 -5 0 -23 0 -40 -1 -16 -1 -40 1 -52 4 -13 2 -25 1 -28 -4
-3 -4 -20 -5 -38 -1 -18 5 -41 5 -52 1 -11 -4 -30 -4 -42 1 -12 5 -25 4 -28 0
-3 -5 -20 -6 -38 -2 -18 5 -41 5 -52 1 -11 -4 -30 -4 -42 1 -12 5 -25 4 -28 0
-3 -5 -20 -6 -38 -2 -18 5 -41 5 -52 1 -11 -4 -30 -4 -42 1 -12 5 -25 4 -28 0
-3 -5 -20 -6 -38 -2 -18 5 -41 5 -51 1 -10 -3 -42 -3 -71 0 -30 3 -62 3 -72
-1 -10 -3 -27 -3 -38 1 -11 4 -32 4 -46 0 -15 -4 -32 -4 -40 1 -8 4 -19 3 -26
-3 -9 -7 -13 -7 -13 1 0 8 -6 9 -17 3 -10 -4 -29 -7 -43 -5 -14 2 -38 4 -55 4
-62 0 -160 0 -170 0 -5 0 -23 0 -40 -1 -16 -1 -40 1 -52 4 -11 2 -23 2 -26 0z"/>
<path d="M376 3003 c-3 -3 -44 -6 -92 -5 -50 0 -105 -6 -130 -15 -50 -17 -123
-87 -131 -126 -3 -15 -10 -30 -14 -33 -5 -3 -9 -536 -9 -1208 0 -1301 -1
-1266 53 -1326 28 -32 80 -69 109 -78 33 -10 3645 -13 3666 -3 86 42 132 80
132 107 0 8 4 14 10 14 13 0 33 78 28 112 -3 15 -1 28 4 28 5 0 7 4 4 9 -5 8
-7 44 -6 116 1 11 0 64 0 117 -1 54 1 102 5 108 3 5 2 10 -2 10 -5 0 -6 30 -3
66 3 36 2 68 -2 70 -5 3 -6 9 -3 13 5 10 6 81 3 219 -2 56 1 102 5 102 5 0 6
4 3 9 -4 7 -6 83 -5 206 0 11 -1 73 -1 137 -1 65 2 122 5 128 3 5 2 10 -2 10
-5 0 -6 30 -3 66 3 36 2 68 -2 70 -5 3 -6 9 -3 13 5 10 6 81 3 219 -2 56 1
102 5 102 5 0 6 4 3 9 -4 6 -7 104 -5 201 0 8 -1 70 -1 137 -1 67 1 127 4 132
4 5 2 12 -3 16 -6 3 -8 12 -5 20 10 26 -29 116 -66 151 -65 63 -128 83 -231
72 -20 -2 -45 -1 -55 3 -11 3 -29 3 -41 -2 -15 -5 -23 -5 -23 2 0 6 -6 6 -17
1 -10 -5 -27 -6 -38 -2 -11 4 -29 4 -40 1 -22 -8 -84 -6 -92 3 -3 2 -16 1 -29
-4 -16 -6 -24 -6 -24 1 0 6 -6 7 -17 0 -10 -5 -26 -5 -39 -1 -12 5 -24 6 -27
3 -3 -3 -25 -5 -49 -4 -24 0 -50 1 -58 1 -29 1 -155 1 -175 0 -27 -2 -32 -2
-97 0 -31 1 -61 -1 -67 -4 -5 -4 -12 -2 -16 3 -3 6 -15 7 -28 3 -23 -8 -85 -7
-94 2 -3 2 -16 1 -29 -4 -16 -6 -24 -6 -24 1 0 6 -6 6 -17 1 -10 -5 -27 -6
-38 -2 -11 4 -29 4 -40 1 -22 -8 -84 -6 -92 3 -3 2 -16 1 -29 -4 -16 -6 -24
-6 -24 1 0 6 -6 7 -17 0 -10 -5 -26 -5 -39 -1 -12 5 -24 6 -27 3 -3 -3 -25 -5
-49 -4 -24 0 -50 1 -58 1 -29 1 -155 1 -175 0 -27 -2 -32 -2 -97 0 -31 1 -61
-1 -67 -4 -5 -4 -12 -2 -16 3 -3 6 -15 7 -28 3 -23 -8 -85 -7 -94 2 -3 2 -16
1 -29 -4 -16 -6 -24 -6 -24 1 0 6 -6 6 -17 1 -10 -5 -27 -6 -38 -2 -11 4 -29
4 -40 1 -22 -8 -84 -6 -92 3 -3 2 -16 1 -29 -4 -16 -6 -24 -6 -24 1 0 6 -6 7
-17 0 -10 -5 -26 -5 -39 -1 -12 5 -24 6 -27 3 -3 -3 -25 -5 -49 -4 -24 0 -50
1 -58 1 -29 1 -155 1 -175 0 -27 -2 -32 -2 -97 0 -31 1 -61 -1 -67 -4 -5 -4
-12 -2 -16 3 -3 6 -15 7 -28 3 -23 -8 -85 -7 -94 2 -3 2 -16 1 -29 -4 -16 -6
-24 -6 -24 1 0 6 -6 6 -17 1 -10 -5 -27 -6 -38 -2 -11 4 -29 4 -40 1 -22 -8
-84 -6 -92 3 -3 2 -16 1 -29 -4 -16 -6 -24 -6 -24 1 0 6 -6 7 -17 0 -10 -5
-26 -5 -39 -1 -12 5 -25 6 -28 3z"/>
<path d="M4695 1802 c-2 -2 -21 -4 -42 -4 -146 2 -250 -102 -253 -253 -1 -31
-1 -290 -1 -362 0 -7 0 -79 0 -160 0 -82 0 -164 1 -183 1 -19 2 -39 2 -45 -1
-20 -1 -210 0 -230 0 -11 0 -45 -1 -75 -5 -134 38 -217 138 -267 34 -17 128
-18 1854 -20 1033 -2 1825 1 1835 6 9 5 29 14 44 21 38 18 83 64 104 108 18
35 19 73 19 662 0 697 3 662 -70 731 -37 36 -120 73 -141 65 -7 -3 -16 -1 -19
4 -4 7 -13 7 -24 0 -10 -5 -21 -7 -23 -4 -4 3 -504 5 -788 3 -8 0 -44 0 -80 0
-36 1 -72 1 -80 0 -11 0 -885 0 -1230 0 -8 0 -154 0 -325 0 -170 0 -323 0
-340 1 -86 3 -577 5 -580 2z"/>
</g>
</svg>
